<mxfile host="app.diagrams.net" modified="2020-11-05T14:48:01.281Z" agent="5.0 (X11; Linux x86_64) AppleWebKit/537.36 (KHTML, like Gecko) Chrome/86.0.4240.183 Safari/537.36" etag="lEM_HghkW9nvMTdpV8qe" version="13.9.1" type="github">
  <diagram id="MDfSrOCtqKTt74gxIjZ1" name="Page-1">
    <mxGraphModel dx="1422" dy="806" grid="1" gridSize="10" guides="1" tooltips="1" connect="1" arrows="1" fold="1" page="1" pageScale="1" pageWidth="850" pageHeight="1100" math="0" shadow="0">
      <root>
        <mxCell id="0" />
        <mxCell id="1" parent="0" />
        <mxCell id="f-clzLcIn6iurvTWpxzQ-4" style="edgeStyle=orthogonalEdgeStyle;rounded=0;orthogonalLoop=1;jettySize=auto;html=1;exitX=1;exitY=0.5;exitDx=0;exitDy=0;" edge="1" parent="1" source="f-clzLcIn6iurvTWpxzQ-1">
          <mxGeometry relative="1" as="geometry">
            <mxPoint x="101" y="390" as="targetPoint" />
          </mxGeometry>
        </mxCell>
        <mxCell id="f-clzLcIn6iurvTWpxzQ-1" value="&lt;font style=&quot;font-size: 18px&quot;&gt;PC&lt;/font&gt;" style="rounded=0;whiteSpace=wrap;html=1;" vertex="1" parent="1">
          <mxGeometry x="1" y="320" width="50" height="140" as="geometry" />
        </mxCell>
        <mxCell id="f-clzLcIn6iurvTWpxzQ-7" style="edgeStyle=orthogonalEdgeStyle;rounded=0;orthogonalLoop=1;jettySize=auto;html=1;entryX=0;entryY=0.25;entryDx=0;entryDy=0;" edge="1" parent="1" source="f-clzLcIn6iurvTWpxzQ-5" target="f-clzLcIn6iurvTWpxzQ-6">
          <mxGeometry relative="1" as="geometry">
            <Array as="points">
              <mxPoint x="211" y="495" />
              <mxPoint x="211" y="460" />
            </Array>
          </mxGeometry>
        </mxCell>
        <mxCell id="f-clzLcIn6iurvTWpxzQ-8" style="edgeStyle=orthogonalEdgeStyle;rounded=0;orthogonalLoop=1;jettySize=auto;html=1;entryX=0.02;entryY=0.825;entryDx=0;entryDy=0;entryPerimeter=0;" edge="1" parent="1" source="f-clzLcIn6iurvTWpxzQ-5" target="f-clzLcIn6iurvTWpxzQ-6">
          <mxGeometry relative="1" as="geometry" />
        </mxCell>
        <mxCell id="f-clzLcIn6iurvTWpxzQ-5" value="&lt;font style=&quot;font-size: 14px&quot;&gt;Address&lt;br&gt;&lt;br&gt;&lt;br&gt;&lt;br&gt;&lt;br&gt;&lt;br&gt;&lt;br&gt;Instr/Data-Memo&lt;br&gt;&lt;br&gt;&lt;br&gt;&lt;br&gt;&lt;br&gt;&lt;br&gt;&lt;br&gt;Data&lt;/font&gt;" style="rounded=0;whiteSpace=wrap;html=1;" vertex="1" parent="1">
          <mxGeometry x="101" y="360" width="80" height="270" as="geometry" />
        </mxCell>
        <mxCell id="f-clzLcIn6iurvTWpxzQ-14" style="edgeStyle=orthogonalEdgeStyle;rounded=0;orthogonalLoop=1;jettySize=auto;html=1;exitX=1;exitY=0.25;exitDx=0;exitDy=0;" edge="1" parent="1" source="f-clzLcIn6iurvTWpxzQ-6">
          <mxGeometry relative="1" as="geometry">
            <mxPoint x="311" y="470" as="sourcePoint" />
            <mxPoint x="386" y="490" as="targetPoint" />
            <Array as="points">
              <mxPoint x="321" y="470" />
              <mxPoint x="321" y="490" />
            </Array>
          </mxGeometry>
        </mxCell>
        <mxCell id="f-clzLcIn6iurvTWpxzQ-17" style="edgeStyle=orthogonalEdgeStyle;rounded=0;orthogonalLoop=1;jettySize=auto;html=1;entryX=-0.017;entryY=0.112;entryDx=0;entryDy=0;entryPerimeter=0;" edge="1" parent="1" source="f-clzLcIn6iurvTWpxzQ-6" target="f-clzLcIn6iurvTWpxzQ-10">
          <mxGeometry relative="1" as="geometry">
            <mxPoint x="301" y="430" as="targetPoint" />
            <Array as="points">
              <mxPoint x="301" y="540" />
              <mxPoint x="301" y="428" />
            </Array>
          </mxGeometry>
        </mxCell>
        <mxCell id="f-clzLcIn6iurvTWpxzQ-6" value="&lt;font style=&quot;font-size: 14px&quot;&gt;Instr Reg&lt;br&gt;&lt;br&gt;&lt;br&gt;Mem Data Reg&lt;/font&gt;" style="rounded=0;whiteSpace=wrap;html=1;" vertex="1" parent="1">
          <mxGeometry x="241" y="440" width="40" height="120" as="geometry" />
        </mxCell>
        <mxCell id="f-clzLcIn6iurvTWpxzQ-21" style="edgeStyle=orthogonalEdgeStyle;rounded=0;orthogonalLoop=1;jettySize=auto;html=1;entryX=0;entryY=0.5;entryDx=0;entryDy=0;" edge="1" parent="1" source="f-clzLcIn6iurvTWpxzQ-10" target="f-clzLcIn6iurvTWpxzQ-20">
          <mxGeometry relative="1" as="geometry">
            <Array as="points">
              <mxPoint x="521" y="475" />
              <mxPoint x="521" y="475" />
            </Array>
          </mxGeometry>
        </mxCell>
        <mxCell id="f-clzLcIn6iurvTWpxzQ-10" value="&lt;font style=&quot;font-size: 14px&quot;&gt;Data&lt;br&gt;&lt;br&gt;&lt;br&gt;&lt;br&gt;Reg rs1&lt;br&gt;&lt;br&gt;&lt;br&gt;&lt;br&gt;Reg rs2&lt;br&gt;&lt;br&gt;&lt;br&gt;&lt;br&gt;Reg rd&lt;/font&gt;" style="rounded=0;whiteSpace=wrap;html=1;" vertex="1" parent="1">
          <mxGeometry x="391" y="400" width="120" height="250" as="geometry" />
        </mxCell>
        <mxCell id="f-clzLcIn6iurvTWpxzQ-12" value="Reg Files" style="text;html=1;align=center;verticalAlign=middle;resizable=0;points=[];autosize=1;" vertex="1" parent="1">
          <mxGeometry x="416" y="380" width="70" height="20" as="geometry" />
        </mxCell>
        <mxCell id="f-clzLcIn6iurvTWpxzQ-15" value="" style="endArrow=classic;html=1;entryX=0;entryY=0.64;entryDx=0;entryDy=0;entryPerimeter=0;" edge="1" parent="1" target="f-clzLcIn6iurvTWpxzQ-10">
          <mxGeometry width="50" height="50" relative="1" as="geometry">
            <mxPoint x="321" y="470" as="sourcePoint" />
            <mxPoint x="361" y="490" as="targetPoint" />
            <Array as="points">
              <mxPoint x="321" y="630" />
              <mxPoint x="321" y="620" />
              <mxPoint x="321" y="560" />
            </Array>
          </mxGeometry>
        </mxCell>
        <mxCell id="f-clzLcIn6iurvTWpxzQ-16" value="" style="endArrow=classic;html=1;" edge="1" parent="1">
          <mxGeometry width="50" height="50" relative="1" as="geometry">
            <mxPoint x="321" y="570" as="sourcePoint" />
            <mxPoint x="381" y="630" as="targetPoint" />
            <Array as="points">
              <mxPoint x="321" y="630" />
            </Array>
          </mxGeometry>
        </mxCell>
        <mxCell id="f-clzLcIn6iurvTWpxzQ-28" value="" style="edgeStyle=orthogonalEdgeStyle;rounded=0;orthogonalLoop=1;jettySize=auto;html=1;" edge="1" parent="1" source="f-clzLcIn6iurvTWpxzQ-20" target="f-clzLcIn6iurvTWpxzQ-27">
          <mxGeometry relative="1" as="geometry">
            <Array as="points">
              <mxPoint x="601" y="475" />
              <mxPoint x="601" y="520" />
            </Array>
          </mxGeometry>
        </mxCell>
        <mxCell id="f-clzLcIn6iurvTWpxzQ-20" value="A" style="rounded=0;whiteSpace=wrap;html=1;" vertex="1" parent="1">
          <mxGeometry x="561" y="460" width="20" height="30" as="geometry" />
        </mxCell>
        <mxCell id="f-clzLcIn6iurvTWpxzQ-30" value="" style="edgeStyle=orthogonalEdgeStyle;rounded=0;orthogonalLoop=1;jettySize=auto;html=1;entryX=0.017;entryY=0.576;entryDx=0;entryDy=0;entryPerimeter=0;" edge="1" parent="1" source="f-clzLcIn6iurvTWpxzQ-22" target="f-clzLcIn6iurvTWpxzQ-27">
          <mxGeometry relative="1" as="geometry" />
        </mxCell>
        <mxCell id="f-clzLcIn6iurvTWpxzQ-22" value="B" style="rounded=0;whiteSpace=wrap;html=1;" vertex="1" parent="1">
          <mxGeometry x="561" y="560" width="20" height="28" as="geometry" />
        </mxCell>
        <mxCell id="f-clzLcIn6iurvTWpxzQ-24" style="edgeStyle=orthogonalEdgeStyle;rounded=0;orthogonalLoop=1;jettySize=auto;html=1;entryX=0;entryY=0.5;entryDx=0;entryDy=0;" edge="1" parent="1">
          <mxGeometry relative="1" as="geometry">
            <mxPoint x="511" y="573.5" as="sourcePoint" />
            <mxPoint x="561" y="573.5" as="targetPoint" />
            <Array as="points">
              <mxPoint x="521" y="573.5" />
              <mxPoint x="521" y="573.5" />
            </Array>
          </mxGeometry>
        </mxCell>
        <mxCell id="f-clzLcIn6iurvTWpxzQ-26" value="" style="endArrow=classic;html=1;" edge="1" parent="1">
          <mxGeometry width="50" height="50" relative="1" as="geometry">
            <mxPoint x="81" y="390" as="sourcePoint" />
            <mxPoint x="591" y="470" as="targetPoint" />
            <Array as="points">
              <mxPoint x="81" y="300" />
              <mxPoint x="591" y="300" />
            </Array>
          </mxGeometry>
        </mxCell>
        <mxCell id="f-clzLcIn6iurvTWpxzQ-34" value="" style="edgeStyle=orthogonalEdgeStyle;rounded=0;orthogonalLoop=1;jettySize=auto;html=1;" edge="1" parent="1" source="f-clzLcIn6iurvTWpxzQ-27" target="f-clzLcIn6iurvTWpxzQ-33">
          <mxGeometry relative="1" as="geometry" />
        </mxCell>
        <mxCell id="f-clzLcIn6iurvTWpxzQ-27" value="&lt;font style=&quot;font-size: 18px&quot;&gt;ALU&lt;/font&gt;" style="whiteSpace=wrap;html=1;rounded=0;" vertex="1" parent="1">
          <mxGeometry x="611" y="445" width="60" height="205" as="geometry" />
        </mxCell>
        <mxCell id="f-clzLcIn6iurvTWpxzQ-31" value="" style="endArrow=classic;html=1;" edge="1" parent="1">
          <mxGeometry width="50" height="50" relative="1" as="geometry">
            <mxPoint x="321" y="630" as="sourcePoint" />
            <mxPoint x="591" y="580" as="targetPoint" />
            <Array as="points">
              <mxPoint x="321" y="710" />
              <mxPoint x="591" y="710" />
            </Array>
          </mxGeometry>
        </mxCell>
        <mxCell id="f-clzLcIn6iurvTWpxzQ-32" value="" style="endArrow=classic;html=1;entryX=0.375;entryY=1;entryDx=0;entryDy=0;entryPerimeter=0;" edge="1" parent="1" target="f-clzLcIn6iurvTWpxzQ-5">
          <mxGeometry width="50" height="50" relative="1" as="geometry">
            <mxPoint x="601" y="580" as="sourcePoint" />
            <mxPoint x="711" y="690" as="targetPoint" />
            <Array as="points">
              <mxPoint x="601" y="750" />
              <mxPoint x="131" y="750" />
            </Array>
          </mxGeometry>
        </mxCell>
        <mxCell id="f-clzLcIn6iurvTWpxzQ-35" style="edgeStyle=orthogonalEdgeStyle;rounded=0;orthogonalLoop=1;jettySize=auto;html=1;" edge="1" parent="1" source="f-clzLcIn6iurvTWpxzQ-33">
          <mxGeometry relative="1" as="geometry">
            <mxPoint x="60" y="390" as="targetPoint" />
            <Array as="points">
              <mxPoint x="820" y="548" />
              <mxPoint x="820" y="140" />
            </Array>
          </mxGeometry>
        </mxCell>
        <mxCell id="f-clzLcIn6iurvTWpxzQ-33" value="&lt;font style=&quot;font-size: 12px&quot;&gt;ALU OUT&lt;/font&gt;" style="whiteSpace=wrap;html=1;rounded=0;" vertex="1" parent="1">
          <mxGeometry x="700" y="512.5" width="39" height="70" as="geometry" />
        </mxCell>
        <mxCell id="f-clzLcIn6iurvTWpxzQ-36" value="" style="endArrow=classic;html=1;entryX=0.25;entryY=0;entryDx=0;entryDy=0;" edge="1" parent="1" target="f-clzLcIn6iurvTWpxzQ-1">
          <mxGeometry width="50" height="50" relative="1" as="geometry">
            <mxPoint x="680" y="550" as="sourcePoint" />
            <mxPoint x="10" y="230" as="targetPoint" />
            <Array as="points">
              <mxPoint x="680" y="230" />
              <mxPoint x="14" y="230" />
            </Array>
          </mxGeometry>
        </mxCell>
        <mxCell id="f-clzLcIn6iurvTWpxzQ-37" value="" style="endArrow=none;html=1;" edge="1" parent="1">
          <mxGeometry width="50" height="50" relative="1" as="geometry">
            <mxPoint x="300" y="540" as="sourcePoint" />
            <mxPoint x="820" y="550" as="targetPoint" />
            <Array as="points">
              <mxPoint x="300" y="800" />
              <mxPoint x="820" y="800" />
            </Array>
          </mxGeometry>
        </mxCell>
      </root>
    </mxGraphModel>
  </diagram>
</mxfile>
